<?xml version="1.0" encoding="UTF-8" standalone="no"?>
<!DOCTYPE svg PUBLIC "-//W3C//DTD SVG 1.1//EN"
 "http://www.w3.org/Graphics/SVG/1.1/DTD/svg11.dtd">
<!-- Generated by graphviz version 12.1.1 (20240910.0053)
 -->
<!-- Title: INFRA Pages: 1 -->
<svg width="149pt" height="188pt"
 viewBox="0.00 0.00 149.28 188.00" xmlns="http://www.w3.org/2000/svg" xmlns:xlink="http://www.w3.org/1999/xlink">
<g id="graph0" class="graph" transform="scale(1 1) rotate(0) translate(4 184)">
<title>INFRA</title>
<polygon fill="white" stroke="none" points="-4,4 -4,-184 145.28,-184 145.28,4 -4,4"/>
<!-- LangSmithClient -->
<g id="node1" class="node">
<title>LangSmithClient</title>
<path fill="#e6e6e6" stroke="black" stroke-width="2" d="M126.55,-72C126.55,-72 14.72,-72 14.72,-72 8.72,-72 2.72,-66 2.72,-60 2.72,-60 2.72,-12 2.72,-12 2.72,-6 8.72,0 14.72,0 14.72,0 126.55,0 126.55,0 132.55,0 138.55,-6 138.55,-12 138.55,-12 138.55,-60 138.55,-60 138.55,-66 132.55,-72 126.55,-72"/>
<text text-anchor="middle" x="70.64" y="-40.2" font-family="Arial" font-size="14.00">LangSmithClient</text>
<text text-anchor="middle" x="70.64" y="-23.4" font-family="Arial" font-size="14.00">(LangSmith::Client)</text>
</g>
<!-- LangChainTracer -->
<g id="node2" class="node">
<title>LangChainTracer</title>
<path fill="#e6e6e6" stroke="black" stroke-width="2" d="M129.28,-180C129.28,-180 12,-180 12,-180 6,-180 0,-174 0,-168 0,-168 0,-120 0,-120 0,-114 6,-108 12,-108 12,-108 129.28,-108 129.28,-108 135.28,-108 141.28,-114 141.28,-120 141.28,-120 141.28,-168 141.28,-168 141.28,-174 135.28,-180 129.28,-180"/>
<text text-anchor="middle" x="70.64" y="-148.2" font-family="Arial" font-size="14.00">LangChainTracer</text>
<text text-anchor="middle" x="70.64" y="-131.4" font-family="Arial" font-size="14.00">(LangChain::Tracer)</text>
</g>
<!-- LangChainTracer&#45;&gt;LangSmithClient -->
<g id="edge1" class="edge">
<title>LangChainTracer&#45;&gt;LangSmithClient</title>
<path fill="none" stroke="black" d="M70.64,-107.7C70.64,-99.93 70.64,-91.57 70.64,-83.43"/>
<polygon fill="black" stroke="black" points="74.14,-83.66 70.64,-73.66 67.14,-83.66 74.14,-83.66"/>
</g>
</g>
</svg>
